<?xml version="1.0" encoding="utf-8"?>
<!-- Generator: Adobe Illustrator 23.0.1, SVG Export Plug-In . SVG Version: 6.00 Build 0)  -->
<svg version="1.1" id="Vrstva_1" xmlns="http://www.w3.org/2000/svg" xmlns:xlink="http://www.w3.org/1999/xlink" x="0px" y="0px"
	 viewBox="0 0 484.26 39.93" style="enable-background:new 0 0 484.26 39.93;" xml:space="preserve">
<style type="text/css">
	.st0{fill:#F6E0E7;}
</style>
<g>
	<g>
		<path class="st0" d="M203.86,24.13c-3,0-6.03,3.26-6.03,7.26s4.3,8.55,8.77,8.55s11.01-6,11.01-12.58s-9.81-23.63-34.51-23.63
			S119.65,32.4,75.58,32.4c-29.42,0-28.43-4.22-28.43-10.43c0-3.23,2.33-4.78,6.18-4.78c7.11,0,6.18,6.42,8.38,6.42
			c2.61,0,3.45-1.68,3.45-3.67s-4.94-7.41-10.03-7.41c-6.18,0-11.58,4.81-11.58,9.43c0,6.77,5.54,9.48,5.54,9.48
			s-27.87-8.07-37.76-9.62C1.91,20.35,0,19.38,0,19.38l11.34,4.21c0,0,37.06,12.5,64.2,12.5c30.29,0,74.52-20.44,74.52-20.44
			s-4.53,11.69-9.13,11.69c-2.23,0-6.02,0.85-6.02,2.84s1.71,2.2,4.19,2.2c17.13,0,7.48-24.66,44.16-24.66
			c24.39,0,30.97,16.04,30.97,20.01c0,5.13-5.09,9.14-7.32,9.14s-2.98-0.74-2.98-2.48c0-3.27,4.88-2.32,4.88-5.75
			C208.82,26.53,206.45,24.13,203.86,24.13z"/>
		<path class="st0" d="M280.41,24.13c3,0,6.03,3.26,6.03,7.26s-4.3,8.55-8.77,8.55s-11.01-6-11.01-12.58s9.81-23.63,34.51-23.63
			c24.7,0,63.43,28.68,107.5,28.68c29.42,0,28.43-4.22,28.43-10.43c0-3.23-2.33-4.78-6.18-4.78c-7.11,0-6.18,6.42-8.38,6.42
			c-2.61,0-3.45-1.68-3.45-3.67s4.94-7.41,10.03-7.41c6.18,0,11.58,4.81,11.58,9.43c0,6.77-5.54,9.48-5.54,9.48
			s27.87-8.07,37.76-9.62c9.43-1.48,11.34-2.45,11.34-2.45l-11.34,4.21c0,0-37.06,12.5-64.2,12.5c-30.29,0-74.52-20.44-74.52-20.44
			s4.53,11.69,9.13,11.69c2.23,0,6.02,0.85,6.02,2.84s-1.71,2.2-4.19,2.2c-17.13,0-7.48-24.66-44.16-24.66
			c-24.39,0-30.97,16.04-30.97,20.01c0,5.13,5.09,9.14,7.32,9.14c2.23,0,2.98-0.74,2.98-2.48c0-3.27-4.88-2.32-4.88-5.75
			C275.44,26.53,277.82,24.13,280.41,24.13z"/>
		<path class="st0" d="M242.13,34.96l-0.66-0.32c-0.8-0.39-19.48-9.65-19.48-24.02C222,6.18,225.82,0,232.05,0
			c5.17,0,8.44,2.63,10.09,4.47C243.78,2.63,247.04,0,252.22,0c6.23,0,10.05,6.18,10.05,10.62c0,14.36-18.68,23.63-19.48,24.02
			L242.13,34.96z M232.05,3c-4.63,0-7.05,4.96-7.05,7.62c0,11.1,13.92,19.24,17.14,20.98c3.22-1.73,17.14-9.88,17.14-20.98
			c0-2.66-2.42-7.62-7.05-7.62c-6,0-8.67,4.5-8.78,4.7l-1.31,2.27l-1.29-2.28C240.72,7.5,238.05,3,232.05,3z"/>
	</g>
</g>
</svg>
